<svg xmlns="http://www.w3.org/2000/svg" viewBox="0 0 280.07 97.91"><defs><style>.cls-1{fill:#202020;}.cls-2{fill:#f9cf21;}</style></defs><g id="Layer_2" data-name="Layer 2"><g id="Layer_1-2" data-name="Layer 1"><path class="cls-1" d="M15.14,92H12.46V83.2H2.83V92H.15V72.13H2.83v9h9.63v-9h2.68Z"/><path class="cls-1" d="M30,92q-.14-.66-.21-1.17a9,9,0,0,1-.09-1,6.16,6.16,0,0,1-2,1.77,5,5,0,0,1-2.6.72,4.78,4.78,0,0,1-3.5-1.18,4.31,4.31,0,0,1-1.21-3.25,3.82,3.82,0,0,1,1.71-3.3,8,8,0,0,1,4.64-1.19h2.91V81.86a2.7,2.7,0,0,0-.79-2,3.12,3.12,0,0,0-2.23-.75,3.23,3.23,0,0,0-2.11.66,2,2,0,0,0-.81,1.58H21.19l0-.08a3.56,3.56,0,0,1,1.51-2.94A6.26,6.26,0,0,1,26.82,77a6.08,6.08,0,0,1,4,1.27,4.53,4.53,0,0,1,1.52,3.67V89a15,15,0,0,0,.08,1.52,8.77,8.77,0,0,0,.3,1.44Zm-4.45-2a4.8,4.8,0,0,0,2.63-.75,3.58,3.58,0,0,0,1.52-1.71V85.13h-3a3.87,3.87,0,0,0-2.59.82,2.43,2.43,0,0,0-1,1.91,2,2,0,0,0,.62,1.55A2.55,2.55,0,0,0,25.54,90Z"/><path class="cls-1" d="M46.92,77.22h2.69V92H46.92V81.5l-.08,0L40.33,92H37.66V77.22h2.67V87.68l.08,0Zm.71-6.06,0,.08a3.21,3.21,0,0,1-1,2.58,4.3,4.3,0,0,1-3,1,4.29,4.29,0,0,1-3-1,3.14,3.14,0,0,1-1-2.58l0-.08h2.06a2.22,2.22,0,0,0,.46,1.46,2.18,2.18,0,0,0,2.93,0,2.16,2.16,0,0,0,.47-1.45Z"/><path class="cls-1" d="M54.74,89.84a10.2,10.2,0,0,0,1.73-2.72,14.6,14.6,0,0,0,.81-4.36l.22-5.54h9.62V89.84h2l-.25,6.44H66.4V92H56.27v4.33H53.85l-.26-6.44ZM60,82.76a17.2,17.2,0,0,1-.7,4.17,10.12,10.12,0,0,1-1.42,2.91h6.6V79.6H60.08Z"/><path class="cls-1" d="M82.54,77.22h2.69V92H82.54V81.5l-.08,0L76,92H73.28V77.22H76V87.68l.09,0Z"/><path class="cls-1" d="M111.41,85.15a8.18,8.18,0,0,1-1.52,5.14,5.05,5.05,0,0,1-4.21,1.95,5.73,5.73,0,0,1-2.39-.46,4.55,4.55,0,0,1-1.75-1.36v7.2H98.86V77.22h2l.42,1.91a4.88,4.88,0,0,1,1.8-1.62,5.28,5.28,0,0,1,2.51-.56,4.88,4.88,0,0,1,4.25,2.17,9.77,9.77,0,0,1,1.52,5.74Zm-2.68-.3a7.72,7.72,0,0,0-1-4.11,3.19,3.19,0,0,0-2.91-1.61,3.55,3.55,0,0,0-2,.52,3.87,3.87,0,0,0-1.32,1.43V88.2a3.55,3.55,0,0,0,3.32,1.93,3.32,3.32,0,0,0,2.89-1.4,6.1,6.1,0,0,0,1-3.59Z"/><path class="cls-1" d="M125.16,92q-.14-.66-.21-1.17a9,9,0,0,1-.09-1,6.09,6.09,0,0,1-2,1.77,5,5,0,0,1-2.59.72,4.81,4.81,0,0,1-3.51-1.18,4.34,4.34,0,0,1-1.2-3.25,3.82,3.82,0,0,1,1.71-3.3,8,8,0,0,1,4.63-1.19h2.92V81.86a2.74,2.74,0,0,0-.79-2,3.13,3.13,0,0,0-2.24-.75,3.22,3.22,0,0,0-2.1.66,2,2,0,0,0-.81,1.58h-2.56l0-.08a3.57,3.57,0,0,1,1.52-2.94A6.25,6.25,0,0,1,122,77a6.06,6.06,0,0,1,4,1.27,4.5,4.5,0,0,1,1.53,3.67V89a15,15,0,0,0,.08,1.52,8.77,8.77,0,0,0,.3,1.44Zm-4.46-2a4.75,4.75,0,0,0,2.63-.75,3.61,3.61,0,0,0,1.53-1.71V85.13h-3a3.9,3.9,0,0,0-2.6.82,2.42,2.42,0,0,0-1,1.91,2,2,0,0,0,.61,1.55A2.57,2.57,0,0,0,120.7,90Z"/><path class="cls-1" d="M139.31,78.06a5.6,5.6,0,0,1,4.45,1.88,7,7,0,0,1,1.64,4.8V85a7.56,7.56,0,0,1-1.77,5.18,6.77,6.77,0,0,1-9.65,0A7.59,7.59,0,0,1,132.2,85V83.12a11.86,11.86,0,0,1,1.83-7,7.66,7.66,0,0,1,4.91-3.2,8.8,8.8,0,0,0,2.49-.74,1.5,1.5,0,0,0,.77-1.41h2.07l0,.08c0,1.6-.35,2.64-1.13,3.14a10.57,10.57,0,0,1-3.72,1.19,6.49,6.49,0,0,0-3.18,1.43,5,5,0,0,0-1.62,3.28l.06.07a6.18,6.18,0,0,1,2-1.4A6.29,6.29,0,0,1,139.31,78.06Zm-.53,2.11a3.4,3.4,0,0,0-2.9,1.31,5.28,5.28,0,0,0-1,3.26V85a6.38,6.38,0,0,0,1,3.65,3.68,3.68,0,0,0,5.84,0,6.31,6.31,0,0,0,1-3.65v-.3a5.17,5.17,0,0,0-1-3.26A3.46,3.46,0,0,0,138.78,80.17Z"/><path class="cls-1" d="M149,84.45a8.14,8.14,0,0,1,1.77-5.39,6.56,6.56,0,0,1,9.64,0,8.05,8.05,0,0,1,1.78,5.39v.3a8,8,0,0,1-1.77,5.39,6.59,6.59,0,0,1-9.65,0A8.1,8.1,0,0,1,149,84.75Zm2.68.29a7,7,0,0,0,1,3.87,3.56,3.56,0,0,0,5.84,0,6.91,6.91,0,0,0,1-3.87v-.3a6.91,6.91,0,0,0-1-3.85,3.3,3.3,0,0,0-2.94-1.53,3.22,3.22,0,0,0-2.9,1.53,7,7,0,0,0-1,3.85Z"/><path class="cls-1" d="M178,79.33h-4.87V92h-2.68V79.33h-4.79V77.22H178Z"/><path class="cls-1" d="M186.92,86.49l.48,1.86h.08l3.62-11.13h3l-6.19,17a7.63,7.63,0,0,1-1.6,2.59,3.68,3.68,0,0,1-2.81,1.11,5.86,5.86,0,0,1-.83-.08c-.34,0-.6-.1-.78-.14l.27-2.11.48,0,.72,0a1.64,1.64,0,0,0,1.4-.76,7.4,7.4,0,0,0,.91-1.69l.65-1.54-5.48-14.43h3Z"/><path class="cls-1" d="M218.1,77.22V92h-2.68V79.33h-5V83.5q0,4.36-1.16,6.41a4.17,4.17,0,0,1-3.95,2h-.76l.05-2.26h.56a2,2,0,0,0,2-1.4,13.92,13.92,0,0,0,.57-4.76v-6.3Z"/><path class="cls-1" d="M229.1,92.24a6.21,6.21,0,0,1-4.9-2,7.74,7.74,0,0,1-1.82-5.32v-.6A7.54,7.54,0,0,1,224.26,79,5.72,5.72,0,0,1,228.69,77a5.61,5.61,0,0,1,4.51,1.79,7.21,7.21,0,0,1,1.52,4.8v1.67h-9.56l0,.07a5.81,5.81,0,0,0,1.08,3.48,3.43,3.43,0,0,0,2.9,1.37,6.73,6.73,0,0,0,2.39-.39,5.34,5.34,0,0,0,1.77-1.07l1.05,1.75a6.22,6.22,0,0,1-2.08,1.3A8.34,8.34,0,0,1,229.1,92.24Zm-.41-13.18a2.91,2.91,0,0,0-2.3,1.13A5.29,5.29,0,0,0,225.22,83l0,.07H232v-.35a4,4,0,0,0-.85-2.63A3,3,0,0,0,228.69,79.06Z"/><path class="cls-1" d="M248.49,79.33h-6.68V92h-2.68V77.22h9.36Z"/><path class="cls-1" d="M256.66,85.7H254.9V92h-2.68V77.22h2.68v6.22h1.55l4.87-6.22h3.14l0,.07-5.77,7L265,91.89l0,.06h-3.29Z"/><path class="cls-1" d="M266.88,84.45a8.14,8.14,0,0,1,1.77-5.39,6.56,6.56,0,0,1,9.64,0,8.05,8.05,0,0,1,1.78,5.39v.3a8,8,0,0,1-1.77,5.39,6.59,6.59,0,0,1-9.65,0,8.1,8.1,0,0,1-1.77-5.39Zm2.68.29a7,7,0,0,0,1,3.87,3.56,3.56,0,0,0,5.84,0,6.91,6.91,0,0,0,1-3.87v-.3a6.91,6.91,0,0,0-1-3.85,3.3,3.3,0,0,0-2.94-1.53,3.22,3.22,0,0,0-2.9,1.53,7,7,0,0,0-1,3.85Z"/><path d="M36,25.14a21.37,21.37,0,0,1,2.35,10.4V53.19a4.41,4.41,0,1,1-8.82,0V35.54a12.44,12.44,0,0,0-1.4-6.29,8.84,8.84,0,0,0-3.74-3.54,12.28,12.28,0,0,0-5.52-1.19,11.26,11.26,0,0,0-5.11,1.15,9.52,9.52,0,0,0-3.61,3A7.34,7.34,0,0,0,8.82,33V53.19A4.36,4.36,0,0,1,7.6,56.34,4.27,4.27,0,0,1,4.41,57.6,4.29,4.29,0,0,1,0,53.19v-32A4.26,4.26,0,0,1,1.27,18a4.35,4.35,0,0,1,3.14-1.22A4.32,4.32,0,0,1,7.59,18a4.19,4.19,0,0,1,1.17,2.34,17.73,17.73,0,0,1,2.61-1.75,18.41,18.41,0,0,1,8.9-2.18,19.16,19.16,0,0,1,9.22,2.22A16.07,16.07,0,0,1,36,25.14Z"/><path class="cls-2" d="M93.14,57.12l-3.88-3.88c-.11-.1-.21-.2-.31-.31a4.2,4.2,0,0,1-1.07-2.3c0-.1,0-.2,0-.3V36.8a20.69,20.69,0,0,0-2.72-10.07,20.58,20.58,0,0,0-35.59,0A20.72,20.72,0,0,0,46.82,37.3a22,22,0,0,0,2.49,10.5,19.53,19.53,0,0,0,6.83,7.39,18.94,18.94,0,0,0,19.59,0,18.62,18.62,0,0,0,1.61-1.14l4.87,4.87a1.22,1.22,0,0,0,.17.15,1.07,1.07,0,0,0,.14.16l4.26,4.25a4.24,4.24,0,0,0,2.3,1.19,3.87,3.87,0,0,0,1.4,0,4.22,4.22,0,0,0,2.36-1.2l.3-.3A4.29,4.29,0,0,0,93.14,57.12ZM77.76,43.79a11.71,11.71,0,0,1-4.25,4.52,12.17,12.17,0,0,1-12.24,0,12,12,0,0,1-4.33-4.53,13.29,13.29,0,0,1-1.59-6.48,13.5,13.5,0,0,1,1.59-6.57,12.05,12.05,0,0,1,4.33-4.52,12.21,12.21,0,0,1,12.24,0,11.81,11.81,0,0,1,4.25,4.53,13.57,13.57,0,0,1,1.56,6.57A13.42,13.42,0,0,1,77.76,43.79Z"/><path d="M106.35,2.56A5.25,5.25,0,0,1,108,6.41a5.3,5.3,0,0,1-1.62,3.88,5.44,5.44,0,0,1-7.73,0A5.34,5.34,0,0,1,97,6.41a5.33,5.33,0,0,1,1.62-3.86,5.41,5.41,0,0,1,7.73,0Z"/><path d="M105.67,18a4.32,4.32,0,0,1,1.22,3.18V53.12a4.36,4.36,0,0,1-1.2,3.14,4.6,4.6,0,0,1-6.35,0,4.34,4.34,0,0,1-1.26-3.16V21.19A4.25,4.25,0,0,1,99.35,18a4.39,4.39,0,0,1,3.14-1.21A4.32,4.32,0,0,1,105.67,18Z"/><path d="M156.82,1.22a4.7,4.7,0,0,0-6.32,0,4.26,4.26,0,0,0-1.27,3.18V21.84a18.72,18.72,0,0,0-4.95-3.51,18.35,18.35,0,0,0-8.15-1.83,18.17,18.17,0,0,0-9.8,2.73,19.43,19.43,0,0,0-6.82,7.39A22,22,0,0,0,117,37.12a20.85,20.85,0,0,0,2.72,10.57,20.18,20.18,0,0,0,7.38,7.41,20.48,20.48,0,0,0,10.45,2.71,20,20,0,0,0,17.76-10.12,20.75,20.75,0,0,0,2.72-10.57V4.4A4.32,4.32,0,0,0,156.82,1.22Zm-13.11,47a12.17,12.17,0,0,1-12.24,0,12,12,0,0,1-4.33-4.55,13.58,13.58,0,0,1-1.59-6.54,13.25,13.25,0,0,1,1.59-6.52,12,12,0,0,1,4.33-4.49,12.14,12.14,0,0,1,12.24,0A11.79,11.79,0,0,1,148,30.6a13.32,13.32,0,0,1,1.56,6.52A13.68,13.68,0,0,1,148,43.66,11.66,11.66,0,0,1,143.71,48.21Z"/><path d="M178.45,2.55a5.26,5.26,0,0,1,1.62,3.86,5.27,5.27,0,0,1-1.62,3.88,5.44,5.44,0,0,1-7.73,0,5.34,5.34,0,0,1-1.62-3.88,5.33,5.33,0,0,1,1.62-3.86,5.42,5.42,0,0,1,7.73,0Z"/><path d="M177.77,18A4.32,4.32,0,0,1,179,21.19V53.12a4.37,4.37,0,0,1-1.22,3.14,4.25,4.25,0,0,1-3.19,1.28,4.31,4.31,0,0,1-4.41-4.42V21.19A4.26,4.26,0,0,1,171.45,18a4.7,4.7,0,0,1,6.32,0Z"/><path d="M198,48.9A5.62,5.62,0,0,1,199.66,53,5.55,5.55,0,0,1,198,57a5.45,5.45,0,0,1-4,1.7,5.77,5.77,0,0,1-5.7-5.71A5.6,5.6,0,0,1,190,48.89a5.64,5.64,0,0,1,8.06,0Z"/><path d="M239.16,51.14a4.1,4.1,0,0,1,1,3,4,4,0,0,1-1.6,2.85,4.2,4.2,0,0,1-2.7,1l-.38,0a4,4,0,0,1-2.86-1.52L219.48,40.2l-2.75,2.45V53.27a4.27,4.27,0,1,1-8.53,0v-49a4.21,4.21,0,0,1,1.19-3.08,4.6,4.6,0,0,1,6.16,0,4.22,4.22,0,0,1,1.18,3.09V31.78l16.19-14.44a3.89,3.89,0,0,1,5.73.28,3.83,3.83,0,0,1,1.11,2.9,4.08,4.08,0,0,1-1.37,2.8L225.74,34.61Z"/><path d="M279.94,53.41c0,2.66-1.46,4.13-4.12,4.13H251.35c-2.65,0-4.12-1.47-4.12-4.13a4.79,4.79,0,0,1,.43-2.13l-.06-.05L267.44,25h-16.8c-2.66,0-4.13-1.47-4.13-4.14s1.47-4.11,4.13-4.11H275.1c2.66,0,4.12,1.46,4.12,4.11a4.41,4.41,0,0,1-.79,2.76L259.08,49.29h16.74C278.48,49.29,279.94,50.75,279.94,53.41Z"/></g></g></svg>